<svg xmlns="http://www.w3.org/2000/svg" version="1.1" viewBox="0 0 489 491"><path d="m233.967 5.861 2.096.006 2.14-.003c1.497 0 2.993.001 4.49.006 2.297.005 4.595 0 6.893-.007 1.45 0 2.901.002 4.352.004l2.095-.006c4.852.024 4.852.024 5.967 1.139 1.779.158 3.563.251 5.348.316l3.271.127 3.444.12 3.455.13c2.827.107 5.654.209 8.482.307l1 3 2.336-.07 3.039-.055 3.023-.07C298 11 298 11 300 13c2.892.464 2.892.464 6.125.625l3.32.227L312 14l1 3 3.063-.125c9.787.31 19.065 5.268 27.937 9.125v2h5l1 3h3v3h8l1 3h3v3l2.21-.156c8.334.467 17.515 9.1 23.79 14.156l1 2c2.017 1.134 2.017 1.134 4 2v2h3v3h3v3l1.688.25c5.088 1.65 8.66 6.007 12.312 9.75l2.75 2.5c2.369 2.632 2.952 4.028 3.25 7.5l1.875.375C426 87 426 87 428 89v3h3v3h2c4 4.353 4 4.353 4 8l3 1v2h2l1 6h2v3h3l.375 1.937L449 119l2 1v4l3 1v4l3 1v5l3 1c2.763 3.758 3.76 7.548 5 12 .696 1.693 1.405 3.38 2.125 5.062 1.57 3.808 2.314 6.764 1.875 10.938h2l.375 2.437L472 169l2 1c.34 2.332.672 4.666 1 7l2 2c.344 2.023.344 2.023.5 4.375.228 3.416.935 5.6 2.5 8.625l.5 3.562c.265 3.551.265 3.551 2.5 6.438.303 2.252.303 2.252.379 4.852l.103 2.828.08 2.945c.06 1.93.124 3.86.192 5.79l.072 2.591C483.785 223 483.785 223 485 224c1.594 14.192 3.532 32.404-1 46a96.36 96.36 0 0 0-.246 4.781l-.1 2.801c-.06 1.945-.118 3.89-.172 5.836l-.103 2.8-.076 2.561C483 291 483 291 481 294c-.34 2.332-.672 4.666-1 7l-.973 1.855c-1.278 2.668-1.573 5.093-1.964 8.02-.715 4.612-1.742 8.04-4.063 12.125-2.222 5.213-3.72 10.487-5 16h-2l-1 6h-2l.063 2.875C463 351 463 351 462 353h-2l-.34 1.64c-.8 2.86-1.972 5.417-3.222 8.11l-1.38 2.984L454 368h-3v5l-3 1-1 5h-2v3h-2l-1 4h-2l-.875 2.312C438 391 438 391 436 394h-2v3c-1.437 1.562-1.437 1.562-3 3l-1 2h-2v3c-3.333 3-3.333 3-6 3v3l-1.875.75c-2.476 1.456-3.076 2.628-4.125 5.25h-3l-.812 2.437L411 422l-3 1-1 3-5 2-1 3c-5.371 4-5.371 4-8 4v2h-3l-1 3-3 1-1 2h-3l-1 3c-2.92 2.075-4.375 3-8 3l-1 3c-2.92 2.075-4.375 3-8 3v2l-6 1v2h-5v3l-2.809.805-3.628 1.07-3.622 1.055c-3.058.73-3.058.73-3.941 3.07a168.693 168.693 0 0 1-6 2l-1 1c-2.67.141-5.324.042-8 0v3h-6v2l-2.52.367-3.292.508-3.27.492c-3.091.484-3.091.484-5.918 2.633-2.33.352-4.664.683-7 1l-2.823.962c-14.196 4.64-30.293 3.314-45 3.244-3.357-.016-6.715-.021-10.073-.02-3.229 0-6.457-.01-9.686-.018l-3.645-.003-3.362-.02-2.956-.011C216 486 216 486 213 485a291.3 291.3 0 0 0-6.312-.313c-18.154-1.153-18.154-1.153-22.688-5.687-1.518-.16-3.04-.277-4.562-.375-4.977-.45-8.89-1.558-13.438-3.625l-1-2c-2.332-.34-4.666-.672-7-1l-2-2a154.125 154.125 0 0 0-7-2v-2h-5l-1-3h-6v-3l-2.125.187c-3.528-.23-5.815-1.479-8.875-3.187v-2l-5-1v-2h-4l-1-2a78.037 78.037 0 0 0-5-2v-2h-3v-3h-5v-3h-3v-3h-3v-2l-5-1-1-3-2.5-1-2.5-1-1-3-3-1v-2l-3-1v-2h-2c-1.625-1.313-1.625-1.313-3-3v-3h-3v-3h-3v-2l-3-1v-2l-3-1c-1.605-1.742-1.605-1.742-3.187-3.875l-1.606-2.117C56 397 56 397 56 394h-3v-3h-2l-.187-2.375L50 386c-2.476-1.375-2.476-1.375-5-2v-5l-3-1-1-3-2-1v-6h-3v-3l-3-1v-5l-3-1v-4h-2c-2.288-4.265-3.674-8.36-5-13-1.599-3.76-1.599-3.76-4-7-.28-2.059-.447-4.117-.621-6.188L18 326l-2-1a220.523 220.523 0 0 1-2-7l-1-1c-.284-2.808-.448-5.616-.621-8.434-.142-2.727-.142-2.727-2.379-4.566-.254-1.972-.505-3.947-.656-5.93-.24-2.113-.24-2.113-1.34-3.972-1.263-2.64-1.384-4.875-1.566-7.786.054-3.468.054-3.468-1.438-6.312-1.109-6.64-1.145-13.19-1.133-19.91l-.003-3.413c0-2.371.001-4.742.006-7.113.005-3.618 0-7.237-.007-10.855 0-2.31.002-4.621.004-6.932l-.006-3.26C3.906 214.093 3.906 214.093 6 212c.286-2.743.448-5.486.621-8.238C7 201.01 7.727 199.427 9 197c.427-1.738.8-3.49 1.125-5.25l.508-2.703L11 187h2l-.07-2.336-.055-3.039-.07-3.023C13 176 13 176 15 174c.72-2.318 1.391-4.651 2-7h2v-8l3-1v-6h3v-8h2l.324-2.156c1.453-6.113 5.079-11.858 8.989-16.719 1.9-2.394 2.343-4.118 2.687-7.125h3v-3h3v-6h3v-3l2-1 .375-1.813c.837-2.929 2.422-4.11 4.625-6.187l1.938-2.438c2.683-3.334 5.678-6.277 8.812-9.187C67.257 83.904 67.257 83.904 68 81c1.938-2.188 1.938-2.188 4-4h2v-2a1067.19 1067.19 0 0 1 5-4l2.063-2.75L83 66h4l1-3h3v-3h3l1-3h2v-3c2.888-2.108 4.385-3 8-3l1-3h3v-2l5-1v-2h3l1-3 2.938-.375L124 39l1-2h3l1-3 3.25-.188c4.552-.986 5.017-2.224 7.75-5.812 4.113-2.169 7.333-3.424 12-3v-2c5.846-2.635 10.545-4.561 17-4v-2l3.438-.938c3.35-.691 3.35-.691 4.562-2.062 3.069-.285 6.138-.449 9.215-.621 2.92-.111 2.92-.111 4.785-2.379 2.564-.381 5.1-.506 7.688-.656 2.503-.138 2.503-.138 4.312-2.344 2.506-.303 2.506-.303 5.629-.379l3.385-.103 3.549-.08c2.313-.06 4.627-.124 6.94-.192l3.12-.072c2.98-.218 5.064-1.297 8.344-1.313Z" fill="#CFCFCF"/><path d="M63 88c.676 1.797.676 1.797 1 4-1.145 1.703-1.145 1.703-2.813 3.25l-1.644 1.578C58 98 58 98 56 98v2h-2c1.366-4.47 3.311-6.233 7-9l2-3Z" fill="#C3C3C3"/><path d="M11 187h2v7l-3 1c-.125-5.75-.125-5.75 1-8Z" fill="#AAA"/><path d="M293 11c2.5-.375 2.5-.375 5 0l2 3c-3.325 1.108-5.622.845-9 0l2-3Z" fill="#A4A4A4"/><path d="M4 268h3v7l-2 1-1-8Z" fill="#B7B7B7"/><path d="m433 97 3 1 .375 2.438L437 103l2 1-4 1-2-8Z" fill="#EFEFEF"/></svg>