<svg xmlns="http://www.w3.org/2000/svg" version="1.1" viewBox="0 0 492 492"><path d="m227.473 4.734 4.231-.005c2.946-.003 5.892 0 8.838.01 3.765.012 7.53.005 11.294-.007 2.91-.007 5.818-.005 8.728 0 1.387.002 2.775 0 4.163-.005a762.64 762.64 0 0 1 5.828.014l3.34.005c3.317.271 5.98 1.146 9.105 2.254 3.914.354 7.808.502 11.734.656C298 8 298 8 300 10c2.427.68 2.427.68 5.125 1.125l2.758.508L310 12v2l1.898-.035c.818-.01 1.635-.018 2.477-.027l2.46-.036C319 14 319 14 321 15v2l2.875-.125C327 17 327 17 329 19l3.5.5c3.5.5 3.5.5 5.5 2.5 2.884 1.319 5.678 2.18 8.75 3l3.25 1 1 2c2.527.656 2.527.656 5 1v2l3 1v2h6l1 2a78.037 78.037 0 0 0 5 2v2l2.25.313c2.947.736 4.534 1.635 6.75 3.687v2h5v3h3v3l1.688.313c2.789.829 4.926 2.03 7.312 3.687v2h2v2l4 1v2l3 1v2h3l1.375 2.313c1.44 2.867 1.44 2.867 4.313 4.25L417 74v4l1.875.375C421 79 421 79 423 81v3h3v2l3 1v2h2c1.473 1.645 1.473 1.645 3.063 3.813l1.597 2.144C437 97 437 97 438 100l2 1v3h3v5l3 1v2l3 1v5l3 1v3h2l1 5 3 1v5h2l1.059 2.59 1.378 3.347 1.372 3.34c.935 2.589.935 2.589 2.191 3.723.04 1.666.043 3.334 0 5l3 1v9l3 1 .375 2.438L473 167l2 1c.345 2.332.678 4.665 1 7l2 3c.257 2.026.512 4.054.719 6.086.333 2.271 1.233 3.884 2.281 5.914.34 2.332.672 4.666 1 7l.996 2.117c1.446 4.153 1.432 8.202 1.567 12.57.06 1.713.123 3.425.19 5.137l.073 2.284c.066 1.98.066 1.98 1.174 3.892.094 1.353.128 2.71.13 4.067l.009 2.538-.006 2.743.003 2.809c0 1.961-.001 3.922-.006 5.883-.005 3.014 0 6.027.007 9.04 0 1.902-.002 3.803-.004 5.705l.006 2.75c-.024 6.35-.024 6.35-1.139 7.465a75.576 75.576 0 0 0-.246 4.516l-.1 2.793c-.06 1.945-.118 3.89-.172 5.836-.174 4.728-.385 8.534-2.482 12.855a108.506 108.506 0 0 0-1.063 4.75c-.83 4.142-.83 4.142-1.937 5.25a173.31 173.31 0 0 0-.875 5.563c-.817 5.179-2.086 9.618-4.125 14.437h-2v6l-3 1v8h-3v6h-2l-1 8h-2l-1 4h-2l.125 2.375C458 360 458 360 456 362c-.643 2.069-.643 2.069-1 4h-3v5l-3 1-1 5h-2v3l-2 1a78.037 78.037 0 0 0-2 5h-2l-1 3h-2v3h-2v3c-1.316 1.441-1.316 1.441-3 3a164.886 164.886 0 0 0-2.938 3.938c-2.17 2.923-4.283 5.68-7.062 8.062h-2v2h-3v3h-3v3h-3v3c-1.313 1.688-1.313 1.688-3 3h-3l-1 3a250 250 0 0 1-6 4l-1 2h-3l-1 3h-2v2c-5.75 3-5.75 3-8 3l-1 3h-3v2l-5 1-1 3c-2.398 1.605-2.398 1.605-5.375 3.188l-2.96 1.605C362 456 362 456 359 456l-1 3c-1.98.724-3.986 1.377-6 2-1.364.69-2.718 1.4-4.063 2.125-3.122 1.618-5.357 2.323-8.937 1.875v2l-2.438.375L334 468l-1 2h-6v2l-1.898.367-2.477.508-2.46.492c-2.352.5-2.352.5-4.165 2.633l-7 1-2 2c-3.344.387-6.669.507-10.031.656-3.085.046-3.085.046-4.969 2.344-2.496.344-2.496.344-5.438.5-3.859.206-5.266.303-8.562 2.5-2.853.247-2.853.247-6.367.243l-3.984.01-4.31-.023h-4.411c-3.081-.002-6.162-.01-9.243-.024-3.953-.017-7.907-.021-11.86-.02-3.036 0-6.072-.006-9.108-.013l-4.374-.006c-2.035-.002-4.07-.012-6.105-.022l-3.512-.011C212 485 212 485 210 484v-2l-2.555.035c-1.095.01-2.191.018-3.32.027l-3.305.036C198 482 198 482 196 481v-2l-2.52.07-3.292.055-3.27.07C184 479 184 479 181 477l-3.563-.5C174 476 174 476 172 474c-2.323-.4-4.657-.74-7-1l-1-3-3.188.188c-3.973-.196-5.724-.755-8.812-3.188v-2l-9-1v-2l-6-1v-2l-2.125.25c-3.846-.334-5.884-1.885-8.875-4.25v-2h-5l-1-3h-3v-3h-5l-1-2-3-1v-3l-2.125-.25c-3.59-.936-5.975-2.457-8.875-4.75v-3l-6-1v-3h-2v-2l-4-1v-2l-3-1v-2h-2c-1.625-1.313-1.625-1.313-3-3v-3h-3v-2l-3-1v-2h-3v-3h-3v-3l-3-1v-2l-3-1v-2h-2l-1-6h-3c-2-3-2-3-2-6l-3-1c-2.767-2.972-3-3.742-3-8l-3-1v-2h-2c-1.354-2.709-1.065-5.01-1-8h-3v-3l-3-1c-2.218-3.696-3-5.63-3-10h-2c-2.417-4.23-3.348-7.123-3-12l-3-1c-1.125-3-1.125-3-2-6l-1-1c-.28-2.059-.447-4.117-.621-6.188L18 324l-2-1a220.523 220.523 0 0 1-2-7l-1-1c-.284-2.515-.448-5.03-.621-7.555-.242-2.696-.242-2.696-2.379-5.445-.252-1.984-.503-3.97-.656-5.965-.244-2.083-.244-2.083-1.34-3.933-1.262-2.642-1.384-4.878-1.566-7.79.054-3.468.054-3.468-1.438-6.312-1.093-6.57-1.146-13.043-1.133-19.691l-.003-3.346c0-2.324.001-4.648.006-6.972.005-3.546 0-7.091-.007-10.637 0-2.265.002-4.53.004-6.795l-.006-3.195c.045-14.27.045-14.27 2.139-16.364.285-3.036.449-6.073.621-9.117C7 199 7 199 9 196c.441-1.882.81-3.78 1.125-5.688l.508-3.011L11 185h2v-11l3-1v-7l3-1v-8l3-1v-6h3l-.25-3.125c.294-4.552 1.617-6.235 4.25-9.875 1.243-3.225 1.243-3.225 2-6h2l.25-2.75c.863-3.74 2.065-4.649 4.75-7.25l.5-2.5c.647-3.236 1.983-4.44 4.5-6.5h2v-5h3v-3h3l-.313-2.188c.438-3.94 2.441-5.22 5.313-7.812l1-2h2l1-3h2v-3h3l.188-2.188C66.26 80.1 68.097 78.489 71 76l3-1 1-3h2v-2c2.31-2.628 3.64-3.88 7-5l2-2.563L88 60h3l1-3h2v-2h3l1-3h5v-3h3v-3l1.938-.375L110 45l1-2h3l1-3h5l1-3c3.297-2.381 6.062-3.234 10-4l1-2h3v-2c3.972-3.13 7.042-3.292 12-3l1-3h4v-2l2.152-.367 2.786-.508 2.777-.492L162 19l1-2h6l1-3h11l1-3h8V9c3.725-1.862 8.216-1.414 12.324-1.621 3.593-.223 3.593-.223 6.501-1.386 6.03-1.768 12.422-1.28 18.648-1.259Z" fill="#C769FE"/><path d="M6 214c2 3 2 3 1.813 5.063C7 221 7 221 4 223v-4h2v-5Z" fill="#AD45CF"/><path d="m475 177 3 1-1 9c-1.97-3.938-2-5.752-2-10Z" fill="#DB7DFD"/></svg>